<svg xmlns="http://www.w3.org/2000/svg" viewBox="0 0 57.724 40.46"><defs><style>.a{fill:#fff;}</style></defs><g transform="translate(28.861 20.23)"><g transform="translate(-28.862 -20.23)"><path class="a" d="M261.22,0A13.358,13.358,0,0,0,247.9,13.334v5.21h2.254v-5.21A11.081,11.081,0,0,1,261.22,2.264h12.711v16.28h2.253V0Z" transform="translate(-241.502)"/><path class="a" d="M273.932,1349.43v3.367H250.154v-3.367H247.9v5.63h28.285v-5.63Z" transform="translate(-241.503 -1314.6)"/><g transform="translate(0 20.812)"><path class="a" d="M6.4,817.006a3.339,3.339,0,0,1-2.626,1.286c-2.15,0-3.772-1.622-3.772-4.459,0-2.785,1.6-4.477,3.772-4.477a3.279,3.279,0,0,1,2.626,1.3v-4.336H8.653v11.756H6.4Zm0-4.688a2.462,2.462,0,0,0-1.939-.969,2.5,2.5,0,0,0,0,4.953,2.462,2.462,0,0,0,1.939-.969Z" transform="translate(0 -806.326)"/><path class="a" d="M434.32,928.231a4.5,4.5,0,1,1,4.494,4.477A4.312,4.312,0,0,1,434.32,928.231Zm6.68,0a2.2,2.2,0,1,0-2.185,2.485A2.247,2.247,0,0,0,441,928.231Z" transform="translate(-423.11 -920.741)"/><path class="a" d="M864.945,923.776a3.923,3.923,0,0,1,3.366,1.551l-1.463,1.357a2.106,2.106,0,0,0-1.8-.916,2.482,2.482,0,0,0,0,4.953,2.148,2.148,0,0,0,1.8-.916l1.463,1.357a3.923,3.923,0,0,1-3.366,1.551,4.468,4.468,0,1,1,0-8.936Z" transform="translate(-838.225 -920.745)"/><path class="a" d="M1259.763,814.8l-1.008,1.093v2.185H1256.5V806.326h2.252v7.032l3.211-3.789h2.75l-3.366,3.86,3.472,4.653h-2.8Z" transform="translate(-1224.072 -806.326)"/><path class="a" d="M1624.888,923.776c2.538,0,4.265,1.9,4.265,4.688v.493h-6.327a2.294,2.294,0,0,0,2.45,1.974,3.48,3.48,0,0,0,2.274-.846l.987,1.445a5.247,5.247,0,0,1-3.508,1.181,4.468,4.468,0,1,1-.141-8.936Zm-2.1,3.666h4.195a1.972,1.972,0,0,0-2.1-1.886A2.045,2.045,0,0,0,1622.791,927.442Z" transform="translate(-1578.657 -920.745)"/><path class="a" d="M2017.283,850.557v-4.441h-1.41V844.16h1.41v-2.326h2.256v2.327h1.727v1.956h-1.727v3.842c0,.529.282.934.776.934a1.224,1.224,0,0,0,.775-.247l.476,1.692a2.763,2.763,0,0,1-1.868.546A2.128,2.128,0,0,1,2017.283,850.557Z" transform="translate(-1963.842 -840.917)"/></g></g></g></svg>